<svg xmlns="http://www.w3.org/2000/svg" width="307.544" height="81.424" viewBox="0 0 307.544 81.424">
  <g id="Group_3" data-name="Group 3" transform="translate(-247.176 -487.972)">
    <path id="Path_1" data-name="Path 1" d="M261.207,517.259v13.577h30.434v12.758H261.207v24.693H247.176V504.5h48.567v12.756Z" fill="#1c193d"/>
    <path id="Path_2" data-name="Path 2" d="M307.583,568.287V531.358h14.038v36.929Z" fill="#1c193d"/>
    <path id="Path_3" data-name="Path 3" d="M434.406,569.38c-19.68,0-33.806-14.67-33.806-32.8V536.4a32.983,32.983,0,0,1,32.968-33q.51,0,1.019.015c19.682,0,33.806,14.668,33.806,32.8v.184a32.983,32.983,0,0,1-32.97,33Q434.915,569.4,434.406,569.38ZM453.723,536.4a19.378,19.378,0,0,0-18.7-20.035c-.207-.007-.413-.011-.62-.012a19.075,19.075,0,0,0-19.149,19q0,.432.016.864v.183a19.377,19.377,0,0,0,18.7,20.034c.206.008.413.011.619.012a19.075,19.075,0,0,0,19.152-19q0-.433-.016-.866Z" fill="#1c193d"/>
    <path id="Path_4" data-name="Path 4" d="M503.117,569.2a40.6,40.6,0,0,1-27.063-10.205l8.3-9.931A29.253,29.253,0,0,0,503.4,556.8c5.743,0,9.2-2.278,9.2-6.016v-.18c0-3.555-2.2-5.372-12.849-8.111-12.847-3.278-21.137-6.836-21.137-19.5v-.183c0-11.572,9.294-19.226,22.324-19.226a36.92,36.92,0,0,1,23.681,8.11l-7.29,10.569a29.931,29.931,0,0,0-16.584-6.287c-5.371,0-8.2,2.461-8.2,5.559v.183c0,4.19,2.732,5.557,13.757,8.382,12.94,3.369,20.23,8.017,20.23,19.133v.183C526.535,562.09,516.876,569.2,503.117,569.2Z" fill="#1c193d"/>
    <g id="Group_2" data-name="Group 2" transform="translate(0 -0.845)">
      <path id="Path_5" data-name="Path 5" d="M537.608,488.817v9.395l-7.156-9.395h-3.1v15.257h3.307v-9.692l7.4,9.692H540.9v-7.156l-3.255-8.1Z" fill="#1c193d"/>
      <path id="Path_6" data-name="Path 6" d="M550.433,488.817l-3.988,10.741-3.989-10.741h-3.71l3.256,8.1,2.921,7.277h2.957l6.177-15.378Z" transform="translate(0.662)" fill="#1c193d"/>
    </g>
    <path id="Path_7" data-name="Path 7" d="M377.1,545.506a19.812,19.812,0,0,0,13.672-19.775v-.183c0-13.12-9.021-21.048-24.055-21.048H337.561v12.659h27.971c6.836,0,11.026,3.1,11.026,9.111v.181c0,5.371-3.907,9.033-10.742,9.033H337.571v32.807H351.6v-20.41h11.025l13.672,20.41h16.4Z" fill="#1c193d"/>
    <path id="Path_8" data-name="Path 8" d="M307.515,517.345V504.566h14.031v12.779Z" fill="#1c193d"/>
  </g>
</svg>
