<svg xmlns="http://www.w3.org/2000/svg" width="1457.459" height="348.5" viewBox="0 0 1457.459 348.5">
  <g id="Group_17182" data-name="Group 17182" transform="translate(-95.245 -445.592)">
    <path id="Path_10502" data-name="Path 10502" d="M92,0H922.454a92,92,0,0,1,92,92V256.5a92,92,0,0,1-92,92H0V92A92,92,0,0,1,92,0Z" transform="translate(95.245 445.592)" fill="#04075e"/>
    <g id="firos" transform="translate(177.487 523.329)" style="isolation: isolate">
      <g id="Group_17179" data-name="Group 17179" style="isolation: isolate">
        <path id="Path_10490" data-name="Path 10490" d="M107.626,463.537a5.7,5.7,0,0,1,1.435-4.191,5.6,5.6,0,0,1,3.819-1.561H231.8q5.759,0,5.759,6v21.78a6.254,6.254,0,0,1-1.5,4.072,5.225,5.225,0,0,1-4.258,1.813H144.053v50.077h20.405q6.377,0,13.265.06t13.271.06H211.4a5.974,5.974,0,0,1,3.879,1.315,5.247,5.247,0,0,1,1.627,4.317v21.282a6.381,6.381,0,0,1-1.441,4.065,4.739,4.739,0,0,1-3.939,1.82H144.053V638.41c0,3.514-1.959,5.261-5.885,5.261h-25.54q-5-.249-5-5.261Z" transform="translate(-107.626 -454.53)" fill="#fff"/>
        <path id="Path_10491" data-name="Path 10491" d="M135.385,463.291a5.812,5.812,0,0,1,1.375-3.879,5.09,5.09,0,0,1,4.118-1.627H165.7a6.26,6.26,0,0,1,3.992,1.5,4.878,4.878,0,0,1,1.873,4.005V638.164q0,5.51-5.865,5.506H140.878q-5.49,0-5.493-5.506Z" transform="translate(49 -454.53)" fill="#fff"/>
        <path id="Path_10492" data-name="Path 10492" d="M150.726,463.663q0-5.879,5.506-5.878h76.606a58.96,58.96,0,0,1,23.66,4.756,61.689,61.689,0,0,1,19.216,12.893A59.9,59.9,0,0,1,293.3,518a57.1,57.1,0,0,1-2.378,16.52,59.818,59.818,0,0,1-6.636,14.646,60.8,60.8,0,0,1-23.162,21.408l32.547,64.218a9.9,9.9,0,0,0,.877,2.5,5.756,5.756,0,0,1,.624,2.624q0,3.756-4.377,3.753H261.753q-4.5,0-6-4.63l-30.3-60.086c-1.335,0-2.77.02-4.317.066s-3.673.06-6.383.06h-27.6v59.21q0,5.381-5.759,5.38H156.232a5.844,5.844,0,0,1-4.005-1.315,5.118,5.118,0,0,1-1.5-4.065Zm105.52,54.52a28.069,28.069,0,0,0-2-10.428,29.671,29.671,0,0,0-5.633-9.06,29.172,29.172,0,0,0-8.642-6.5,28.132,28.132,0,0,0-10.887-2.869q-4.384-.13-8.575-.193t-8.7-.06H187.153v58.087h37.742c1.455,0,3.022-.086,4.69-.252a29.153,29.153,0,0,0,10.834-2.75,26.591,26.591,0,0,0,8.449-6.31,29.117,29.117,0,0,0,5.44-8.994A29.482,29.482,0,0,0,256.246,518.184Z" transform="translate(135.559 -454.53)" fill="#fff"/>
        <path id="Path_10493" data-name="Path 10493" d="M179.6,553.152a95.3,95.3,0,0,1,3.381-25.414,94.306,94.306,0,0,1,9.638-22.909,98.1,98.1,0,0,1,14.959-19.4,93.238,93.238,0,0,1,19.342-14.959,98.079,98.079,0,0,1,22.843-9.638,95.545,95.545,0,0,1,50.821,0,98.252,98.252,0,0,1,22.85,9.638,95.644,95.644,0,0,1,34.361,34.361,98.1,98.1,0,0,1,9.638,22.909,94.21,94.21,0,0,1,3.441,25.54,92.823,92.823,0,0,1-3.441,25.407,98.359,98.359,0,0,1-9.638,22.783,93.206,93.206,0,0,1-14.965,19.343,95.816,95.816,0,0,1-42.245,24.477,95.717,95.717,0,0,1-73.79-9.638,96.249,96.249,0,0,1-34.241-34.241A95.118,95.118,0,0,1,179.6,553.152Zm36.181-.252a61.189,61.189,0,0,0,4.563,23.66,60.168,60.168,0,0,0,12.521,19.157A59.336,59.336,0,0,0,251.633,608.6a59.919,59.919,0,0,0,46.822,0,59.051,59.051,0,0,0,31.418-32.043,63.206,63.206,0,0,0,0-47.194,60.294,60.294,0,0,0-12.581-19.216A59.544,59.544,0,0,0,298.455,497.2a59.922,59.922,0,0,0-46.822,0,58.881,58.881,0,0,0-18.771,12.953,61.148,61.148,0,0,0-17.084,42.75Z" transform="translate(298.459 -456.765)" fill="#fff"/>
        <path id="Path_10494" data-name="Path 10494" d="M330.321,510.121a5.759,5.759,0,0,1-3-.817,27.989,27.989,0,0,1-3.129-2.192l-.252-.126a65.537,65.537,0,0,0-14.52-10.641,61.251,61.251,0,0,0-9.95-4.251,34.432,34.432,0,0,0-10.827-1.754,44.754,44.754,0,0,0-12.395,1.561,28.33,28.33,0,0,0-9.014,4.258,18.3,18.3,0,0,0-5.506,6.324,16.608,16.608,0,0,0-1.88,7.765,11.943,11.943,0,0,0,2.816,7.884,26.064,26.064,0,0,0,7.632,6,74.839,74.839,0,0,0,11.079,4.822q6.257,2.192,13.145,4.318,7.891,2.381,15.649,5.134A143.687,143.687,0,0,1,325,544.6a104.516,104.516,0,0,1,13.211,7.638,50.068,50.068,0,0,1,10.575,9.638,43.882,43.882,0,0,1,7.008,12.142,42.027,42.027,0,0,1,2.571,15.091,54.357,54.357,0,0,1-5.513,24.656,56.369,56.369,0,0,1-15.2,18.838,69.843,69.843,0,0,1-22.783,12.016,91.592,91.592,0,0,1-28.1,4.2,82.457,82.457,0,0,1-19.15-2.258,92.716,92.716,0,0,1-18.28-6.383,96.693,96.693,0,0,1-16.586-9.95,82.461,82.461,0,0,1-13.956-13.086v.133l-.252-.505q-2.75-3.128-2.757-5.759a5.072,5.072,0,0,1,.751-2.631,15.008,15.008,0,0,1,2.258-2.75l4.132-4.132c1.249-1.083,2.584-2.3,4.005-3.633a54.475,54.475,0,0,1,4.251-3.627c1.421-1.083,2.737-2.006,3.946-2.757a6.083,6.083,0,0,1,2.942-1.122,5.315,5.315,0,0,1,3.255,1.122,24.771,24.771,0,0,1,2.5,2.125l.5.505H244.2A82.554,82.554,0,0,0,254.027,602a98.562,98.562,0,0,0,11.2,6.7,67.566,67.566,0,0,0,11.458,4.63,37.8,37.8,0,0,0,10.7,1.687,45.821,45.821,0,0,0,12.893-1.754,33.293,33.293,0,0,0,10.4-4.942,23.809,23.809,0,0,0,6.882-7.7,20.29,20.29,0,0,0,2.5-10.017,14.364,14.364,0,0,0-3.255-9.452,29.671,29.671,0,0,0-8.516-6.881,65.131,65.131,0,0,0-11.83-5.068q-6.566-2.122-13.2-4.005a198.928,198.928,0,0,1-26.722-10.016,80.773,80.773,0,0,1-19.09-12.083,42.533,42.533,0,0,1-15.277-33.736,46.538,46.538,0,0,1,18.027-37.616,64.3,64.3,0,0,1,20.784-10.634,90.143,90.143,0,0,1,27.161-3.819,79.587,79.587,0,0,1,23.162,3.567,90.572,90.572,0,0,1,21.78,9.824q3,1.873,6.131,4.258t5.759,4.822a32.866,32.866,0,0,1,4.317,4.756,5.9,5.9,0,0,1,.943,7.007,11.913,11.913,0,0,1-1.88,2.816l-3.76,4.005v-.126q-1.873,2-3.879,4.132a48.277,48.277,0,0,1-4.005,3.819q-2,1.694-3.627,2.816A5.216,5.216,0,0,1,330.321,510.121Z" transform="translate(502.616 -457.295)" fill="#fff"/>
      </g>
      <g id="Group_17180" data-name="Group 17180" style="isolation: isolate">
        <path id="Path_10495" data-name="Path 10495" d="M107.626,463.537a5.7,5.7,0,0,1,1.435-4.191,5.6,5.6,0,0,1,3.819-1.561H231.8q5.759,0,5.759,6v21.78a6.254,6.254,0,0,1-1.5,4.072,5.225,5.225,0,0,1-4.258,1.813H144.053v50.077h20.405q6.377,0,13.265.06t13.271.06H211.4a5.974,5.974,0,0,1,3.879,1.315,5.247,5.247,0,0,1,1.627,4.317v21.282a6.381,6.381,0,0,1-1.441,4.065,4.739,4.739,0,0,1-3.939,1.82H144.053V638.41c0,3.514-1.959,5.261-5.885,5.261h-25.54q-5-.249-5-5.261Z" transform="translate(-107.626 -454.53)" fill="none"/>
        <path id="Path_10496" data-name="Path 10496" d="M135.385,463.291a5.812,5.812,0,0,1,1.375-3.879,5.09,5.09,0,0,1,4.118-1.627H165.7a6.26,6.26,0,0,1,3.992,1.5,4.878,4.878,0,0,1,1.873,4.005V638.164q0,5.51-5.865,5.506H140.878q-5.49,0-5.493-5.506Z" transform="translate(49 -454.53)" fill="none"/>
        <path id="Path_10497" data-name="Path 10497" d="M150.726,463.663q0-5.879,5.506-5.878h76.606a58.96,58.96,0,0,1,23.66,4.756,61.689,61.689,0,0,1,19.216,12.893A59.9,59.9,0,0,1,293.3,518a57.1,57.1,0,0,1-2.378,16.52,59.818,59.818,0,0,1-6.636,14.646,60.8,60.8,0,0,1-23.162,21.408l32.547,64.218a9.9,9.9,0,0,0,.877,2.5,5.756,5.756,0,0,1,.624,2.624q0,3.756-4.377,3.753H261.753q-4.5,0-6-4.63l-30.3-60.086c-1.335,0-2.77.02-4.317.066s-3.673.06-6.383.06h-27.6v59.21q0,5.381-5.759,5.38H156.232a5.844,5.844,0,0,1-4.005-1.315,5.118,5.118,0,0,1-1.5-4.065Zm105.52,54.52a28.069,28.069,0,0,0-2-10.428,29.671,29.671,0,0,0-5.633-9.06,29.172,29.172,0,0,0-8.642-6.5,28.132,28.132,0,0,0-10.887-2.869q-4.384-.13-8.575-.193t-8.7-.06H187.153v58.087h37.742c1.455,0,3.022-.086,4.69-.252a29.153,29.153,0,0,0,10.834-2.75,26.591,26.591,0,0,0,8.449-6.31,29.117,29.117,0,0,0,5.44-8.994A29.482,29.482,0,0,0,256.246,518.184Z" transform="translate(135.559 -454.53)" fill="none"/>
        <path id="Path_10498" data-name="Path 10498" d="M179.6,553.152a95.3,95.3,0,0,1,3.381-25.414,94.306,94.306,0,0,1,9.638-22.909,98.1,98.1,0,0,1,14.959-19.4,93.238,93.238,0,0,1,19.342-14.959,98.079,98.079,0,0,1,22.843-9.638,95.545,95.545,0,0,1,50.821,0,98.252,98.252,0,0,1,22.85,9.638,95.644,95.644,0,0,1,34.361,34.361,98.1,98.1,0,0,1,9.638,22.909,94.21,94.21,0,0,1,3.441,25.54,92.823,92.823,0,0,1-3.441,25.407,98.359,98.359,0,0,1-9.638,22.783,93.206,93.206,0,0,1-14.965,19.343,95.816,95.816,0,0,1-42.245,24.477,95.717,95.717,0,0,1-73.79-9.638,96.249,96.249,0,0,1-34.241-34.241A95.118,95.118,0,0,1,179.6,553.152Zm36.181-.252a61.189,61.189,0,0,0,4.563,23.66,60.168,60.168,0,0,0,12.521,19.157A59.336,59.336,0,0,0,251.633,608.6a59.919,59.919,0,0,0,46.822,0,59.051,59.051,0,0,0,31.418-32.043,63.206,63.206,0,0,0,0-47.194,60.294,60.294,0,0,0-12.581-19.216A59.544,59.544,0,0,0,298.455,497.2a59.922,59.922,0,0,0-46.822,0,58.881,58.881,0,0,0-18.771,12.953,61.148,61.148,0,0,0-17.084,42.75Z" transform="translate(298.459 -456.765)" fill="none"/>
        <path id="Path_10499" data-name="Path 10499" d="M330.321,510.121a5.759,5.759,0,0,1-3-.817,27.989,27.989,0,0,1-3.129-2.192l-.252-.126a65.537,65.537,0,0,0-14.52-10.641,61.251,61.251,0,0,0-9.95-4.251,34.432,34.432,0,0,0-10.827-1.754,44.754,44.754,0,0,0-12.395,1.561,28.33,28.33,0,0,0-9.014,4.258,18.3,18.3,0,0,0-5.506,6.324,16.608,16.608,0,0,0-1.88,7.765,11.943,11.943,0,0,0,2.816,7.884,26.064,26.064,0,0,0,7.632,6,74.839,74.839,0,0,0,11.079,4.822q6.257,2.192,13.145,4.318,7.891,2.381,15.649,5.134A143.687,143.687,0,0,1,325,544.6a104.516,104.516,0,0,1,13.211,7.638,50.068,50.068,0,0,1,10.575,9.638,43.882,43.882,0,0,1,7.008,12.142,42.027,42.027,0,0,1,2.571,15.091,54.357,54.357,0,0,1-5.513,24.656,56.369,56.369,0,0,1-15.2,18.838,69.843,69.843,0,0,1-22.783,12.016,91.592,91.592,0,0,1-28.1,4.2,82.457,82.457,0,0,1-19.15-2.258,92.716,92.716,0,0,1-18.28-6.383,96.693,96.693,0,0,1-16.586-9.95,82.461,82.461,0,0,1-13.956-13.086v.133l-.252-.505q-2.75-3.128-2.757-5.759a5.072,5.072,0,0,1,.751-2.631,15.008,15.008,0,0,1,2.258-2.75l4.132-4.132c1.249-1.083,2.584-2.3,4.005-3.633a54.475,54.475,0,0,1,4.251-3.627c1.421-1.083,2.737-2.006,3.946-2.757a6.083,6.083,0,0,1,2.942-1.122,5.315,5.315,0,0,1,3.255,1.122,24.771,24.771,0,0,1,2.5,2.125l.5.505H244.2A82.554,82.554,0,0,0,254.027,602a98.562,98.562,0,0,0,11.2,6.7,67.566,67.566,0,0,0,11.458,4.63,37.8,37.8,0,0,0,10.7,1.687,45.821,45.821,0,0,0,12.893-1.754,33.293,33.293,0,0,0,10.4-4.942,23.809,23.809,0,0,0,6.882-7.7,20.29,20.29,0,0,0,2.5-10.017,14.364,14.364,0,0,0-3.255-9.452,29.671,29.671,0,0,0-8.516-6.881,65.131,65.131,0,0,0-11.83-5.068q-6.566-2.122-13.2-4.005a198.928,198.928,0,0,1-26.722-10.016,80.773,80.773,0,0,1-19.09-12.083,42.533,42.533,0,0,1-15.277-33.736,46.538,46.538,0,0,1,18.027-37.616,64.3,64.3,0,0,1,20.784-10.634,90.143,90.143,0,0,1,27.161-3.819,79.587,79.587,0,0,1,23.162,3.567,90.572,90.572,0,0,1,21.78,9.824q3,1.873,6.131,4.258t5.759,4.822a32.866,32.866,0,0,1,4.317,4.756,5.9,5.9,0,0,1,.943,7.007,11.913,11.913,0,0,1-1.88,2.816l-3.76,4.005v-.126q-1.873,2-3.879,4.132a48.277,48.277,0,0,1-4.005,3.819q-2,1.694-3.627,2.816A5.216,5.216,0,0,1,330.321,510.121Z" transform="translate(502.616 -457.295)" fill="none"/>
      </g>
    </g>
    <g id="NV" transform="translate(1168.902 526.583)" style="isolation: isolate">
      <g id="Group_17181" data-name="Group 17181" style="isolation: isolate">
        <path id="Path_10500" data-name="Path 10500" d="M256.883,463.418a5.806,5.806,0,0,1,1.442-4.005,5.14,5.14,0,0,1,4.065-1.627h28.788a7.148,7.148,0,0,1,3.321.81,8.211,8.211,0,0,1,2.816,2.564q21.412,30.548,42.438,60.651t42.438,60.651V462.541a5.342,5.342,0,0,1,5.507-4.756h24.152a6.554,6.554,0,0,1,4.324,1.5,4.943,4.943,0,0,1,1.813,4.005V638.543q0,5.131-5.878,5.128H384.941q-2.75,0-5.134-3.374-22.029-31.923-43.873-63.78T292.18,512.611V638.164a5.8,5.8,0,0,1-1.309,4.131q-1.315,1.375-4.444,1.375H262.389a5.433,5.433,0,0,1-4.191-1.435,5.629,5.629,0,0,1-1.315-3.945Z" transform="translate(-256.883 -457.785)" fill="#04075e"/>
        <path id="Path_10501" data-name="Path 10501" d="M359.491,640.044c-.917-1.754-1.747-3.527-2.5-5.32s-1.5-3.647-2.258-5.573L289.016,464.54a4.68,4.68,0,0,0-.186-1.063,6.446,6.446,0,0,1-.193-1.687q0-4.005,5.135-4.005H320.56q4.762,0,6.51,4.756,2.75,7.881,6.7,18.466t8.389,22.4q4.434,11.827,9.14,24.225t9.133,24.032q4.444,11.637,8.263,21.84t6.45,17.469q2.75-7.263,6.5-17.469t8.077-21.84q4.324-11.648,8.954-24.032t9.007-24.225q4.394-11.826,8.329-22.4t6.815-18.466a6.652,6.652,0,0,1,6.769-4.756h26.284c3.753,0,5.639,1.375,5.639,4.131a6.581,6.581,0,0,1-.193,1.621,5.193,5.193,0,0,0-.186,1l-65.6,164.61c-.671,1.674-1.328,3.361-2,5.075a47.61,47.61,0,0,1-2.258,4.942,6.988,6.988,0,0,1-4.63,3.886,33.231,33.231,0,0,1-6.882.618H365.376q-2.88,0-4.072-1.122A8.067,8.067,0,0,1,359.491,640.044Z" transform="translate(-77.716 -457.785)" fill="#04075e"/>
      </g>
    </g>
  </g>
</svg>
