<svg xmlns="http://www.w3.org/2000/svg" xmlns:xlink="http://www.w3.org/1999/xlink" width="120" height="58" viewBox="0 0 120 58">
  <defs>
    <clipPath id="clip-brand-02">
      <rect width="120" height="58"/>
    </clipPath>
  </defs>
  <g id="brand-02" clip-path="url(#clip-brand-02)">
    <g id="Group_17155" data-name="Group 17155">
      <g id="dribbble" transform="translate(0 13)">
        <path id="Path_10442" data-name="Path 10442" d="M15.69,0A15.689,15.689,0,1,0,31.38,15.69,15.69,15.69,0,0,0,15.69,0Zm10.3,7.594a13.042,13.042,0,0,1,2.8,7.728,27.839,27.839,0,0,0-9.18-.22q-.5-1.144-1.026-2.222A18.935,18.935,0,0,0,25.985,7.595ZM24.18,5.72a16.562,16.562,0,0,1-6.791,4.836,67.2,67.2,0,0,0-4.788-7.6A13.054,13.054,0,0,1,24.18,5.72ZM10.056,3.86A64.282,64.282,0,0,1,14.9,11.386a46.348,46.348,0,0,1-11.966,1.3A13.154,13.154,0,0,1,10.056,3.86ZM2.585,15.689l.011-.424h.071a48.221,48.221,0,0,0,13.463-1.531q.465.946.913,1.944A20.433,20.433,0,0,0,5.827,24.3,13.042,13.042,0,0,1,2.585,15.689ZM7.737,26.095c2.212-3.332,5.3-6.629,10.312-8.013A44.766,44.766,0,0,1,20.683,27.8,13.06,13.06,0,0,1,7.737,26.095Zm15.356.4a47.76,47.76,0,0,0-2.473-8.925,25.979,25.979,0,0,1,7.984.341A13.132,13.132,0,0,1,23.093,26.5Z" transform="translate(0 -0.001)" fill="#ea4c89"/>
      </g>
      <text id="Dribbble-2" data-name="Dribbble" transform="translate(43 33)" font-size="13" font-family="Poppins-Medium, Poppins" font-weight="500"><tspan x="0" y="0">Dribbble</tspan></text>
    </g>
  </g>
</svg>
