<svg xmlns="http://www.w3.org/2000/svg" xmlns:xlink="http://www.w3.org/1999/xlink" width="120" height="58" viewBox="0 0 120 58">
  <defs>
    <linearGradient id="linear-gradient" x1="0.084" y1="0.916" x2="0.916" y2="0.084" gradientUnits="objectBoundingBox">
      <stop offset="0" stop-color="#ffd600"/>
      <stop offset="0.5" stop-color="#ff0100"/>
      <stop offset="1" stop-color="#d800b9"/>
    </linearGradient>
    <linearGradient id="linear-gradient-2" x1="0.146" y1="0.854" x2="0.854" y2="0.146" gradientUnits="objectBoundingBox">
      <stop offset="0" stop-color="#ff6400"/>
      <stop offset="0.5" stop-color="#ff0100"/>
      <stop offset="1" stop-color="#fd0056"/>
    </linearGradient>
    <linearGradient id="linear-gradient-3" x1="0.146" y1="0.854" x2="0.854" y2="0.146" gradientUnits="objectBoundingBox">
      <stop offset="0" stop-color="#f30072"/>
      <stop offset="1" stop-color="#e50097"/>
    </linearGradient>
    <clipPath id="clip-brand-04">
      <rect width="120" height="58"/>
    </clipPath>
  </defs>
  <g id="brand-04" clip-path="url(#clip-brand-04)">
    <g id="Group_17156" data-name="Group 17156" transform="translate(0 3.001)">
      <text id="Instagram" transform="translate(43 30)" font-size="13" font-family="Poppins-Medium, Poppins" font-weight="500"><tspan x="0" y="0">Instagram</tspan></text>
      <g id="instagram_1_" data-name="instagram (1)" transform="translate(0 12)">
        <path id="Path_10443" data-name="Path 10443" d="M27.782,8.188a10.228,10.228,0,0,0-.648-3.382,6.828,6.828,0,0,0-1.607-2.468A6.831,6.831,0,0,0,23.059.731,10.227,10.227,0,0,0,19.677.084C18.191.016,17.717,0,13.933,0S9.674.016,8.188.084A10.231,10.231,0,0,0,4.806.731,6.829,6.829,0,0,0,2.338,2.338,6.83,6.83,0,0,0,.731,4.806,10.227,10.227,0,0,0,.084,8.188C.016,9.674,0,10.148,0,13.932s.016,4.259.084,5.744a10.226,10.226,0,0,0,.648,3.382,6.827,6.827,0,0,0,1.607,2.468,6.827,6.827,0,0,0,2.468,1.607,10.224,10.224,0,0,0,3.382.648c1.486.068,1.961.084,5.744.084s4.259-.016,5.744-.084a10.225,10.225,0,0,0,3.382-.648,7.123,7.123,0,0,0,4.075-4.075,10.225,10.225,0,0,0,.648-3.382c.068-1.486.084-1.961.084-5.744s-.016-4.258-.084-5.744ZM25.274,19.562a7.708,7.708,0,0,1-.48,2.587,4.614,4.614,0,0,1-2.644,2.644,7.709,7.709,0,0,1-2.587.48c-1.469.067-1.91.081-5.63.081s-4.161-.014-5.63-.081a7.712,7.712,0,0,1-2.587-.48,4.318,4.318,0,0,1-1.6-1.042,4.316,4.316,0,0,1-1.042-1.6,7.708,7.708,0,0,1-.48-2.587c-.067-1.469-.081-1.91-.081-5.63s.014-4.161.081-5.63a7.714,7.714,0,0,1,.48-2.587,4.319,4.319,0,0,1,1.042-1.6,4.314,4.314,0,0,1,1.6-1.042A7.708,7.708,0,0,1,8.3,2.591c1.469-.067,1.91-.081,5.63-.081h0c3.72,0,4.161.014,5.63.081a7.71,7.71,0,0,1,2.587.48,4.32,4.32,0,0,1,1.6,1.042,4.314,4.314,0,0,1,1.042,1.6,7.7,7.7,0,0,1,.48,2.587c.067,1.469.081,1.91.081,5.63s-.014,4.161-.081,5.63Zm0,0" transform="translate(0 0)" fill="url(#linear-gradient)"/>
        <path id="Path_10444" data-name="Path 10444" d="M131.694,124.539a7.154,7.154,0,1,0,7.155,7.155A7.155,7.155,0,0,0,131.694,124.539Zm0,11.8a4.644,4.644,0,1,1,4.644-4.644A4.644,4.644,0,0,1,131.694,136.338Zm0,0" transform="translate(-117.761 -117.761)" fill="url(#linear-gradient-2)"/>
        <path id="Path_10445" data-name="Path 10445" d="M365.274,90.3a1.672,1.672,0,1,1-1.672-1.672A1.672,1.672,0,0,1,365.274,90.3Zm0,0" transform="translate(-342.231 -83.802)" fill="url(#linear-gradient-3)"/>
      </g>
    </g>
  </g>
</svg>
