<svg xmlns="http://www.w3.org/2000/svg" xmlns:xlink="http://www.w3.org/1999/xlink" width="120" height="58" viewBox="0 0 120 58">
  <defs>
    <clipPath id="clip-brand-05">
      <rect width="120" height="58"/>
    </clipPath>
  </defs>
  <g id="brand-05" clip-path="url(#clip-brand-05)">
    <g id="Group_17158" data-name="Group 17158" transform="translate(0 1)">
      <text id="twitter" transform="translate(56 33)" font-size="13" font-family="Poppins-Medium, Poppins" font-weight="500"><tspan x="0" y="0">twitter</tspan></text>
      <path id="twitter-2" data-name="twitter" d="M32.3,51.107a13.808,13.808,0,0,1-3.816,1.046,6.585,6.585,0,0,0,2.913-3.66,13.235,13.235,0,0,1-4.2,1.6,6.622,6.622,0,0,0-11.456,4.528,6.818,6.818,0,0,0,.153,1.51,18.745,18.745,0,0,1-13.65-6.927,6.624,6.624,0,0,0,2.035,8.851,6.54,6.54,0,0,1-2.992-.816v.073A6.653,6.653,0,0,0,6.6,63.822a6.61,6.61,0,0,1-1.736.218,5.855,5.855,0,0,1-1.254-.113A6.685,6.685,0,0,0,9.8,68.54a13.307,13.307,0,0,1-8.211,2.824A12.406,12.406,0,0,1,0,71.273a18.644,18.644,0,0,0,10.159,2.972c12.186,0,18.849-10.094,18.849-18.844,0-.293-.01-.575-.024-.856A13.211,13.211,0,0,0,32.3,51.107Z" transform="translate(0 -33)" fill="#03a9f4"/>
    </g>
  </g>
</svg>
