<svg xmlns="http://www.w3.org/2000/svg" xmlns:xlink="http://www.w3.org/1999/xlink" width="120" height="58" viewBox="0 0 120 58">
  <defs>
    <clipPath id="clip-brand-01">
      <rect width="120" height="58"/>
    </clipPath>
  </defs>
  <g id="brand-01" clip-path="url(#clip-brand-01)">
    <g id="Group_17160" data-name="Group 17160" transform="translate(0 0.001)">
      <g id="behance" transform="translate(0 18)">
        <g id="Group_17153" data-name="Group 17153" transform="translate(0 0)">
          <g id="Group_17152" data-name="Group 17152">
            <path id="Path_10440" data-name="Path 10440" d="M14.485,105.926a5.281,5.281,0,0,0,1.662-1.219,4.736,4.736,0,0,0,1.006-3.162,5.411,5.411,0,0,0-1-3.277q-1.664-2.231-5.64-2.289H0v21.463H9.8a15.331,15.331,0,0,0,3.074-.288,6.046,6.046,0,0,0,2.458-1.078,5.952,5.952,0,0,0,1.54-1.688,6.2,6.2,0,0,0,.971-3.422A5.631,5.631,0,0,0,17,107.821,4.891,4.891,0,0,0,14.485,105.926ZM4.338,99.707H9.073a8.349,8.349,0,0,1,2.573.334,1.925,1.925,0,0,1,1.169,1.985,2.021,2.021,0,0,1-.885,1.884,4.438,4.438,0,0,1-2.3.533H4.338Zm7.489,13.633a5.187,5.187,0,0,1-2.205.379H4.338v-5.724H9.694a5.591,5.591,0,0,1,2.179.361,2.3,2.3,0,0,1,1.384,2.3A2.7,2.7,0,0,1,11.826,113.34Z" transform="translate(0 -95.979)"/>
            <rect id="Rectangle_6356" data-name="Rectangle 6356" width="9.324" height="2.672" transform="translate(22.5 1.001)"/>
            <path id="Path_10441" data-name="Path 10441" d="M295.688,177.552a7.657,7.657,0,0,0-1.285-3.281,6.478,6.478,0,0,0-2.777-2.348,9.194,9.194,0,0,0-3.785-.744,7.834,7.834,0,0,0-5.753,2.2,8.537,8.537,0,0,0-2.216,6.329q0,4.4,2.458,6.353A8.831,8.831,0,0,0,288,188.014a7.887,7.887,0,0,0,6.054-2.313,5.206,5.206,0,0,0,1.558-2.87h-4.3a3.466,3.466,0,0,1-.867,1.091,3.6,3.6,0,0,1-2.333.726,4.313,4.313,0,0,1-2.322-.6,3.791,3.791,0,0,1-1.686-3.347h11.723A20.191,20.191,0,0,0,295.688,177.552Zm-11.477.412a4.3,4.3,0,0,1,1.122-2.456,3.383,3.383,0,0,1,2.511-.909,3.736,3.736,0,0,1,2.5.854,3.471,3.471,0,0,1,1.12,2.511Z" transform="translate(-260.625 -166.007)"/>
          </g>
        </g>
      </g>
      <text id="Behance-2" data-name="Behance" transform="translate(56 34)" font-size="13" font-family="Poppins-Medium, Poppins" font-weight="500"><tspan x="0" y="0">Behance</tspan></text>
    </g>
  </g>
</svg>
