<svg xmlns="http://www.w3.org/2000/svg" xmlns:xlink="http://www.w3.org/1999/xlink" width="120" height="58" viewBox="0 0 120 58">
  <defs>
    <clipPath id="clip-brand-07">
      <rect width="120" height="58"/>
    </clipPath>
  </defs>
  <g id="brand-07" clip-path="url(#clip-brand-07)">
    <g id="Group_17254" data-name="Group 17254">
      <g id="Group_17158" data-name="Group 17158" transform="translate(-1 1)">
        <text id="Pinterest" transform="translate(54 33)" font-size="13" font-family="Poppins-Medium, Poppins" font-weight="500"><tspan x="0" y="0">Pinterest</tspan></text>
      </g>
      <path id="Path_22312" data-name="Path 22312" d="M0,16.728A16.729,16.729,0,0,0,10.013,32.05a14.7,14.7,0,0,1,.291-3.841c.322-1.358,2.152-9.115,2.152-9.115a6.426,6.426,0,0,1-.534-2.647c0-2.479,1.437-4.331,3.226-4.331a2.241,2.241,0,0,1,2.257,2.511c0,1.53-.976,3.818-1.477,5.937a2.589,2.589,0,0,0,2.64,3.222c3.169,0,5.3-4.071,5.3-8.894,0-3.666-2.469-6.411-6.961-6.411a7.921,7.921,0,0,0-8.236,8.011,4.83,4.83,0,0,0,1.1,3.281.811.811,0,0,1,.24.932c-.08.308-.265,1.049-.341,1.342a.576.576,0,0,1-.838.419c-2.337-.954-3.426-3.514-3.426-6.391,0-4.752,4.008-10.45,11.956-10.45,6.387,0,10.59,4.622,10.59,9.583,0,6.562-3.648,11.465-9.026,11.465a4.8,4.8,0,0,1-4.087-2.085s-.971,3.854-1.177,4.6a14.007,14.007,0,0,1-1.684,3.584A16.729,16.729,0,1,0,0,16.728Z" transform="translate(0 12.1)" fill="#cb1f27"/>
    </g>
  </g>
</svg>
